<?xml version="1.0" encoding="UTF-8"?>
<svg xmlns="http://www.w3.org/2000/svg" viewBox="0 0 60 120" width="60" height="120">
  <defs>
    <linearGradient id="tileGradient" x1="0%" y1="0%" x2="0%" y2="100%">
      <stop offset="0%" stop-color="#FCFCFA"/>
      <stop offset="100%" stop-color="#EFEFE8"/>
    </linearGradient>
    <filter id="tileShadow" x="-10%" y="-5%" width="120%" height="115%">
      <feDropShadow dx="0" dy="1.5" stdDeviation="1.5" flood-color="#000" flood-opacity="0.1"/>
    </filter>
  </defs>

  <!-- Tile Body -->
  <rect x="1" y="1" width="58" height="118" rx="8" ry="8" fill="url(#tileGradient)" stroke="#D3D2CA" stroke-width="1.5" />
  
  <!-- Subtle inner edge highlight -->
  <rect x="2" y="2" width="56" height="116" rx="7" ry="7" fill="none" stroke="#FFFFFF" stroke-opacity="0.8" stroke-width="1" />

  <!-- Center Groove -->
  <line x1="8" y1="60" x2="52" y2="60" stroke="#C8C7C0" stroke-width="1.5" stroke-linecap="round" />
  <line x1="8" y1="61" x2="52" y2="61" stroke="#FFFFFF" stroke-width="1" stroke-opacity="0.9" stroke-linecap="round" />

  <!-- Top Pips (4) -->
  <g id="top-pips">
    <circle cx="18" cy="18" r="4.25" fill="#191A18" />
    <circle cx="42" cy="18" r="4.25" fill="#191A18" />
    <circle cx="18" cy="42" r="4.25" fill="#191A18" />
    <circle cx="42" cy="42" r="4.25" fill="#191A18" />
  </g>

  <!-- Bottom Pips (6) -->
  <g id="bottom-pips">
    <circle cx="18" cy="78" r="4.25" fill="#191A18" />
    <circle cx="42" cy="78" r="4.25" fill="#191A18" />
    <circle cx="18" cy="90" r="4.25" fill="#191A18" />
    <circle cx="42" cy="90" r="4.25" fill="#191A18" />
    <circle cx="18" cy="102" r="4.25" fill="#191A18" />
    <circle cx="42" cy="102" r="4.25" fill="#191A18" />
  </g>
</svg>
